<?xml version="1.0" standalone="no"?>
<!DOCTYPE svg PUBLIC "-//W3C//DTD SVG 20010904//EN"
 "http://www.w3.org/TR/2001/REC-SVG-20010904/DTD/svg10.dtd">
<svg version="1.0" xmlns="http://www.w3.org/2000/svg"
 width="460.000000pt" height="460.000000pt" viewBox="0 0 460.000000 460.000000"
 preserveAspectRatio="xMidYMid meet">
<metadata>
Created by potrace 1.14, written by Peter Selinger 2001-2017
</metadata>
<g transform="translate(0.000000,460.000000) scale(0.100000,-0.100000)"
fill="#000000" stroke="none">
<path d="M3410 4290 c0 -5 5 -10 10 -10 6 0 10 5 10 10 0 6 -4 10 -10 10 -5 0
-10 -4 -10 -10z"/>
<path d="M2802 4174 c-13 -13 -21 -28 -17 -33 3 -7 0 -8 -9 -5 -14 6 -21 -5
-17 -28 0 -5 -6 -8 -14 -8 -9 0 -12 -6 -8 -15 3 -10 1 -15 -7 -13 -7 2 -15 -3
-18 -11 -3 -9 0 -11 8 -6 8 5 11 4 6 -3 -4 -6 -13 -9 -21 -6 -16 6 -45 -44
-37 -65 3 -9 0 -11 -9 -6 -8 4 -6 0 3 -11 15 -15 20 -16 30 -5 7 8 9 11 3 8
-5 -3 -11 6 -11 19 -2 23 -1 24 12 7 12 -17 13 -17 8 3 -3 12 -1 25 5 28 7 5
9 0 5 -11 -5 -15 -4 -15 4 -3 6 8 9 17 6 21 -2 4 0 10 6 14 12 7 103 146 98
149 -1 1 -14 -8 -26 -20z"/>
<path d="M3144 4046 c-3 -8 -12 -17 -20 -20 -9 -3 -12 -1 -9 4 3 6 -5 10 -19
10 -19 0 -26 -5 -26 -20 0 -11 7 -20 15 -20 8 0 15 -4 15 -10 0 -15 -35 -29
-59 -23 -16 4 -20 2 -16 -10 4 -10 14 -13 28 -9 21 5 21 5 -2 -20 l-25 -26
-35 19 c-26 14 -38 16 -48 7 -18 -15 -16 -31 7 -56 22 -23 11 -31 -12 -9 -7 8
-19 12 -26 9 -8 -2 -10 3 -6 15 4 13 2 12 -8 -3 -12 -20 -15 -20 -27 -7 -12
14 -15 13 -25 -8 -10 -21 -18 -24 -71 -24 -33 0 -70 -4 -81 -8 -18 -6 -24 -3
-32 22 -6 16 -7 31 -3 33 5 2 11 13 15 25 5 16 2 25 -12 32 -22 12 -32 6 -55
-37 -18 -31 -16 -52 4 -52 6 0 7 5 4 10 -3 6 -2 10 4 10 12 0 25 -20 14 -21
-4 -1 -23 -2 -42 -4 -19 -2 -38 -10 -43 -19 -5 -9 -17 -16 -26 -17 -10 0 -12
-3 -4 -6 20 -8 14 -25 -7 -18 -14 4 -23 0 -31 -15 -6 -11 -17 -20 -25 -20 -20
0 -19 17 1 28 11 6 13 12 6 16 -8 4 -7 19 4 48 35 100 8 85 -36 -20 -20 -50
-40 -82 -54 -88 -11 -5 -20 -15 -19 -22 2 -6 -3 -9 -11 -6 -8 3 -17 1 -21 -5
-10 -18 -23 -13 -64 24 -50 45 -98 66 -128 54 -22 -8 -29 -2 -24 25 1 5 6 45
12 90 9 73 8 82 -8 94 -10 7 -18 16 -18 20 0 4 -3 6 -6 5 -3 -1 -23 2 -44 7
-45 10 -88 -5 -64 -22 10 -6 7 -7 -9 -3 -18 5 -25 2 -29 -14 -7 -26 -28 -27
-55 -1 -23 21 -73 26 -98 10 -12 -8 -13 -12 -2 -19 11 -6 9 -10 -7 -14 -12 -3
-19 -1 -15 4 3 5 3 9 1 9 -7 0 -47 -78 -47 -91 0 -6 6 -7 13 -3 6 4 4 -2 -6
-13 -14 -16 -18 -42 -20 -119 -3 -99 -3 -99 -30 -102 -32 -4 -67 -45 -67 -79
0 -20 4 -24 18 -18 14 5 15 4 5 -6 -20 -21 -15 -34 14 -37 33 -3 35 -5 27 -26
-4 -11 -13 -15 -23 -11 -31 12 -36 10 -39 -17 -2 -16 -8 -28 -14 -28 -9 0 -22
-10 -79 -62 -10 -10 -21 -13 -24 -8 -4 6 -1 10 4 10 20 0 11 20 -24 57 -33 35
-35 36 -53 20 -14 -13 -21 -14 -30 -5 -10 10 -10 5 -1 -20 8 -25 9 -36 0 -45
-15 -15 -14 -27 3 -27 8 0 16 7 20 15 3 8 12 15 21 15 8 0 15 5 15 10 0 6 5
10 10 10 6 0 10 -9 10 -20 0 -11 -4 -20 -10 -20 -5 0 -10 -7 -10 -16 0 -11 -6
-15 -20 -11 -11 3 -18 0 -17 -7 1 -6 -6 -10 -15 -10 -10 1 -16 -3 -15 -9 1 -6
-5 -12 -14 -14 -13 -3 -15 2 -11 23 3 19 1 25 -7 20 -6 -4 -11 -12 -11 -17 0
-6 -7 -17 -15 -25 -13 -14 -15 -14 -15 0 0 8 -5 18 -12 22 -8 5 -9 2 -5 -11 5
-12 -1 -26 -20 -44 -14 -14 -24 -21 -20 -15 3 6 0 11 -8 11 -8 0 -13 -2 -10
-5 2 -3 0 -13 -6 -23 -26 -50 44 -28 253 77 47 24 91 44 97 44 6 0 40 13 75
30 36 16 109 45 163 64 54 19 130 46 168 60 133 50 570 194 685 226 63 17 146
41 183 52 38 11 80 21 93 22 13 0 24 4 24 7 0 3 39 16 88 29 190 49 309 90
309 105 0 9 -5 14 -11 12 -11 -4 -36 16 -36 28 0 20 -47 49 -97 61 -72 17 -72
17 -79 0z m33 -2 c-3 -3 -12 -4 -19 -1 -8 3 -5 6 6 6 11 1 17 -2 13 -5z
m-1086 -71 c13 -17 13 -17 -6 -3 -11 8 -22 16 -24 17 -2 2 0 3 6 3 6 0 17 -8
24 -17z m19 -63 c0 -11 -7 -20 -15 -20 -8 0 -15 5 -15 11 0 5 5 7 10 4 6 -3
10 1 10 9 0 9 2 16 5 16 3 0 5 -9 5 -20z m884 -16 c3 -8 2 -12 -4 -9 -6 3 -10
10 -10 16 0 14 7 11 14 -7z m-1334 -274 c-8 -5 -17 -7 -19 -4 -3 3 1 9 9 14 8
5 17 7 19 4 3 -3 -1 -9 -9 -14z"/>
<path d="M2532 4008 c-32 -42 -41 -68 -21 -68 5 0 7 -5 4 -10 -4 -6 -11 -8
-16 -5 -5 4 -9 4 -9 1 0 -3 13 -12 30 -21 28 -14 30 -14 41 7 6 13 8 20 4 16
-11 -11 -33 15 -27 32 5 13 4 13 -13 0 -17 -14 -17 -14 -5 6 10 17 16 19 26
10 7 -6 11 -15 11 -20 -1 -5 3 -10 9 -13 12 -4 14 3 17 61 1 22 -3 41 -8 43
-6 2 -25 -16 -43 -39z m13 -88 c3 -5 1 -10 -4 -10 -6 0 -11 5 -11 10 0 6 2 10
4 10 3 0 8 -4 11 -10z"/>
<path d="M2994 4024 c3 -9 6 -18 6 -21 0 -3 7 0 15 7 17 14 11 30 -12 30 -10
0 -13 -6 -9 -16z"/>
<path d="M2875 4020 c-7 -12 2 -30 16 -30 12 0 12 27 0 35 -5 3 -12 1 -16 -5z"/>
<path d="M2730 3980 c-8 -16 -8 -20 4 -20 16 0 29 27 16 35 -5 3 -14 -4 -20
-15z"/>
<path d="M2155 3960 c-3 -5 -1 -10 4 -10 6 0 11 5 11 10 0 6 -2 10 -4 10 -3 0
-8 -4 -11 -10z"/>
<path d="M2895 3960 c-4 -6 -3 -14 0 -20 9 -15 35 -12 35 4 0 17 -27 29 -35
16z"/>
<path d="M1420 3925 c0 -8 5 -15 10 -15 6 0 10 7 10 15 0 8 -4 15 -10 15 -5 0
-10 -7 -10 -15z"/>
<path d="M1366 3911 c-9 -13 4 -41 18 -41 18 0 35 21 29 36 -6 16 -39 19 -47
5z"/>
<path d="M3517 3893 c-9 -2 -14 -9 -11 -15 4 -7 2 -8 -5 -4 -12 8 -66 -8 -165
-45 -27 -11 -53 -19 -59 -19 -10 0 -43 -11 -322 -112 -369 -133 -414 -153
-534 -236 -72 -49 -112 -91 -106 -109 5 -14 -22 -39 -32 -29 -3 3 -1 6 6 6 7
0 9 5 6 10 -6 10 -28 -14 -71 -75 -46 -66 -64 -151 -84 -390 -6 -66 -19 -221
-30 -345 -11 -124 -20 -228 -20 -231 0 -4 60 22 133 58 72 36 159 76 192 88
33 13 90 37 127 54 37 16 91 38 120 47 29 9 109 37 178 62 69 25 141 49 160
55 19 5 52 18 73 28 37 19 37 19 37 -1 0 -28 12 -25 54 13 41 38 48 55 11 31
-23 -15 -80 -11 -59 5 5 3 18 17 29 31 16 20 17 22 2 11 -24 -19 -77 -22 -77
-4 0 7 -5 13 -11 13 -7 0 -22 11 -34 24 -26 28 -65 51 -65 37 0 -5 6 -12 13
-15 6 -3 -1 -3 -16 1 -15 3 -27 1 -26 -3 7 -37 -35 -49 -46 -14 -4 11 -11 18
-16 14 -6 -3 -8 -12 -6 -18 5 -13 -31 -41 -41 -32 -3 3 2 14 11 24 10 10 17
26 17 36 0 13 5 16 23 11 20 -6 21 -5 5 8 -20 15 -14 29 8 20 8 -3 14 0 14 6
0 6 -10 11 -22 12 -13 0 -17 3 -10 6 6 2 12 14 12 24 0 13 4 18 12 13 6 -4 8
-3 4 4 -7 11 12 62 27 73 5 3 8 9 8 13 -2 12 27 74 38 80 7 4 11 -1 11 -12 0
-11 8 -26 17 -33 14 -12 15 -12 9 0 -7 10 -4 12 12 7 17 -6 19 -3 15 15 -5 18
-3 20 15 15 15 -5 22 -2 27 14 7 22 44 27 63 8 9 -9 12 -7 12 10 0 22 28 62
43 62 16 0 39 31 33 45 -3 9 0 12 10 8 8 -3 14 1 14 10 0 8 5 17 11 19 5 2 11
11 12 20 4 22 27 48 43 48 9 0 14 11 14 30 0 22 4 28 15 24 16 -7 21 -34 6
-34 -5 0 -8 -12 -7 -27 2 -16 -1 -34 -6 -40 -7 -9 -7 -13 0 -13 6 0 14 9 17
20 4 12 15 20 29 20 29 0 52 25 39 43 -15 20 -17 71 -2 62 9 -6 10 -1 6 16 -7
27 29 108 61 140 38 39 46 57 43 98 0 12 2 28 6 35 13 20 13 78 0 73 -6 -2
-33 -32 -60 -68 -27 -35 -99 -118 -161 -184 -91 -97 -122 -123 -161 -138 -58
-21 -68 -15 -29 15 36 28 136 126 109 107 -18 -13 -19 -13 -6 3 7 10 17 16 21
13 4 -3 23 13 41 35 19 22 50 59 70 83 20 23 55 69 77 103 23 33 51 69 62 79
18 17 47 58 38 54 -2 -1 -11 -3 -21 -6z m-67 -73 c0 -5 -2 -10 -4 -10 -3 0 -8
5 -11 10 -3 6 -1 10 4 10 6 0 11 -4 11 -10z m-8 -24 c7 4 8 2 4 -4 -4 -6 -13
-9 -21 -6 -8 4 -12 11 -8 17 5 8 8 7 11 -1 2 -7 9 -9 14 -6z m-33 -20 c7 -8 8
-17 3 -20 -6 -3 -12 3 -15 14 -6 24 -4 25 12 6z m-492 -122 c-3 -3 -12 -4 -19
-1 -8 3 -5 6 6 6 11 1 17 -2 13 -5z m393 -29 c0 -5 -5 -3 -10 5 -5 8 -10 20
-10 25 0 6 5 3 10 -5 5 -8 10 -19 10 -25z m-923 -213 c-10 -10 -17 -23 -17
-28 0 -5 -9 -15 -20 -22 -11 -7 -20 -8 -20 -3 0 5 7 11 15 15 8 3 15 11 15 17
0 7 8 18 18 25 24 19 28 17 9 -4z m663 -17 c0 -8 -7 -15 -15 -15 -13 0 -14 3
-3 15 16 18 18 18 18 0z m-740 -91 c0 -2 -9 -4 -20 -4 -11 0 -20 4 -20 9 0 5
9 7 20 4 11 -3 20 -7 20 -9z m-9 -41 c13 -16 12 -17 -3 -4 -10 7 -18 15 -18
17 0 8 8 3 21 -13z"/>
<path d="M3565 3810 c-3 -5 -1 -10 4 -10 6 0 11 5 11 10 0 6 -2 10 -4 10 -3 0
-8 -4 -11 -10z"/>
<path d="M1450 3755 c0 -8 5 -15 10 -15 6 0 10 7 10 15 0 8 -4 15 -10 15 -5 0
-10 -7 -10 -15z"/>
<path d="M1210 3739 c0 -5 5 -7 10 -4 6 3 10 8 10 11 0 2 -4 4 -10 4 -5 0 -10
-5 -10 -11z"/>
<path d="M1480 3700 c0 -11 7 -20 15 -20 17 0 18 2 9 24 -9 23 -24 20 -24 -4z"/>
<path d="M1330 3663 c0 -6 5 -15 11 -18 5 -4 7 -19 4 -34 -5 -24 -3 -28 17
-26 30 2 32 43 3 59 -11 6 -23 16 -27 21 -5 6 -8 6 -8 -2z"/>
<path d="M1470 3635 c0 -8 5 -15 10 -15 6 0 10 7 10 15 0 8 -4 15 -10 15 -5 0
-10 -7 -10 -15z"/>
<path d="M2420 3590 c-8 -5 -10 -10 -5 -10 6 0 17 5 25 10 8 5 11 10 5 10 -5
0 -17 -5 -25 -10z"/>
<path d="M2373 3580 c-13 -5 -23 -11 -23 -14 0 -7 40 6 46 15 6 10 6 10 -23
-1z"/>
<path d="M1149 3562 c6 -12 16 -24 22 -28 8 -4 8 -1 0 14 -6 12 -16 24 -22 28
-8 4 -8 1 0 -14z"/>
<path d="M1340 3560 c0 -5 9 -10 21 -10 11 0 17 5 14 10 -3 6 -13 10 -21 10
-8 0 -14 -4 -14 -10z"/>
<path d="M1050 3554 c0 -6 7 -17 15 -24 9 -7 13 -20 10 -29 -3 -8 -3 -12 1 -8
9 9 37 -30 29 -42 -5 -10 33 -27 41 -18 7 7 -7 37 -17 37 -5 0 -9 4 -9 9 0 6
-16 27 -35 48 -19 21 -35 33 -35 27z"/>
<path d="M3510 3550 c0 -5 5 -10 11 -10 5 0 7 5 4 10 -3 6 -8 10 -11 10 -2 0
-4 -4 -4 -10z"/>
<path d="M2236 3535 c-25 -19 -16 -19 20 0 16 8 22 15 14 15 -8 -1 -24 -7 -34
-15z"/>
<path d="M2160 3510 c0 -6 -4 -9 -9 -6 -5 3 -14 -1 -21 -9 -15 -18 -3 -19 29
-1 15 8 20 16 12 20 -6 4 -11 2 -11 -4z"/>
<path d="M1290 3503 c0 -14 19 -38 25 -32 8 8 -5 39 -16 39 -5 0 -9 -3 -9 -7z"/>
<path d="M1451 3505 c1 -19 18 -51 18 -35 0 8 -4 22 -9 30 -5 8 -9 11 -9 5z"/>
<path d="M1561 3503 c-1 -7 -7 -13 -15 -13 -13 0 -14 -10 -7 -59 1 -3 6 0 13
7 7 7 20 12 30 12 15 0 17 4 9 19 -6 10 -7 22 -3 26 4 5 2 5 -5 2 -6 -4 -14
-1 -16 5 -4 10 -6 10 -6 1z"/>
<path d="M1404 3492 c3 -5 2 -12 -4 -14 -5 -2 -6 -9 -1 -16 6 -10 10 -9 14 7
3 12 0 24 -5 28 -6 3 -8 1 -4 -5z"/>
<path d="M1196 3477 c3 -10 9 -15 12 -12 3 3 0 11 -7 18 -10 9 -11 8 -5 -6z"/>
<path d="M1227 3474 c6 -15 23 -19 23 -5 0 5 -7 11 -14 14 -10 4 -13 1 -9 -9z"/>
<path d="M2089 3486 c-2 -3 -40 -14 -84 -26 -44 -11 -87 -23 -95 -27 -8 -3
-19 -7 -25 -7 -28 -3 -164 -70 -159 -78 4 -6 -2 -8 -14 -4 -11 4 -23 2 -27 -4
-3 -6 -10 -8 -15 -5 -4 3 -13 -2 -20 -10 -6 -7 -18 -11 -26 -8 -8 3 -14 -1
-14 -8 0 -7 -3 -10 -6 -7 -11 11 -304 -129 -304 -145 0 -5 6 -7 13 -4 6 2 20
0 30 -5 12 -6 19 -5 23 6 6 14 300 166 323 166 7 0 9 5 5 11 -4 8 0 9 15 4 14
-4 23 -2 27 9 3 8 12 12 19 10 7 -3 35 4 61 15 25 12 51 21 57 21 5 0 37 13
71 29 84 40 132 54 163 46 23 -5 24 -4 10 10 -16 16 -21 18 -28 11z"/>
<path d="M3545 3480 c3 -5 8 -10 11 -10 2 0 4 5 4 10 0 6 -5 10 -11 10 -5 0
-7 -4 -4 -10z"/>
<path d="M1220 3443 c0 -4 5 -15 10 -23 8 -13 10 -13 10 2 0 9 -4 20 -10 23
-5 3 -10 3 -10 -2z"/>
<path d="M1500 3440 c0 -5 5 -10 11 -10 5 0 7 5 4 10 -3 6 -8 10 -11 10 -2 0
-4 -4 -4 -10z"/>
<path d="M3536 3434 c-4 -9 -4 -19 -1 -22 2 -3 7 3 11 12 4 9 4 19 1 22 -2 3
-7 -3 -11 -12z"/>
<path d="M781 3437 c2 -1 13 -9 24 -17 19 -14 19 -14 6 3 -7 9 -18 17 -24 17
-6 0 -8 -1 -6 -3z"/>
<path d="M1274 3388 c8 -18 19 -34 25 -36 16 -5 13 14 -4 28 -8 7 -15 19 -15
26 0 8 -4 14 -10 14 -5 0 -3 -14 4 -32z"/>
<path d="M1150 3402 c0 -12 19 -26 26 -19 2 2 -2 10 -11 17 -9 8 -15 8 -15 2z"/>
<path d="M961 3376 c-9 -10 -7 -19 8 -37 l20 -24 21 21 c20 20 20 22 5 38 -20
20 -39 21 -54 2z"/>
<path d="M836 3365 c-3 -9 0 -15 9 -15 16 0 20 16 6 24 -5 3 -11 -1 -15 -9z"/>
<path d="M1060 3346 c0 -2 8 -10 18 -17 15 -13 16 -12 3 4 -13 16 -21 21 -21
13z"/>
<path d="M1197 3344 c-3 -4 1 -17 10 -31 12 -17 18 -21 24 -12 14 23 -16 61
-34 43z"/>
<path d="M995 3275 c39 -32 55 -32 25 0 -13 14 -31 25 -39 25 -11 0 -6 -8 14
-25z"/>
<path d="M910 3270 c0 -5 5 -10 10 -10 6 0 10 5 10 10 0 6 -4 10 -10 10 -5 0
-10 -4 -10 -10z"/>
<path d="M1000 3213 c1 -11 50 -46 50 -35 0 10 -33 42 -43 42 -4 0 -7 -3 -7
-7z"/>
<path d="M1207 3166 c-8 -8 -18 -12 -21 -8 -4 3 -4 -2 0 -12 5 -14 4 -17 -4
-12 -7 4 -12 2 -12 -3 0 -6 4 -11 9 -11 5 0 12 -8 16 -17 5 -15 4 -16 -6 -5
-17 16 -26 15 -32 -2 -4 -11 -1 -13 11 -9 14 6 15 5 2 -9 -12 -13 -17 -14 -25
-4 -5 7 -23 16 -39 20 -27 7 -28 6 -15 -11 8 -10 19 -21 26 -26 7 -4 10 -25 8
-50 -3 -43 15 -77 42 -77 20 0 16 -18 -7 -30 -26 -14 -25 -26 2 -33 17 -5 19
-9 9 -21 -7 -8 -11 -23 -9 -33 2 -11 -2 -17 -11 -15 -17 3 -43 -17 -35 -29 3
-5 13 -5 23 1 22 11 31 4 31 -25 0 -29 9 -36 31 -24 15 7 17 6 13 -6 -4 -8
-10 -15 -14 -15 -5 0 -16 -3 -24 -6 -12 -5 -15 -2 -10 10 4 10 1 16 -9 16 -8
0 -18 -7 -21 -16 -8 -22 -8 -26 4 -19 6 3 10 1 10 -5 0 -15 -33 -26 -38 -12
-2 7 -10 12 -17 12 -8 0 -18 7 -22 15 -6 11 -16 12 -38 6 l-30 -8 29 -12 c16
-6 42 -23 58 -36 34 -29 48 -31 48 -10 0 22 13 18 40 -10 22 -23 22 -25 4 -26
-14 -1 -13 -3 6 -8 15 -4 24 -14 24 -24 -1 -9 3 -17 9 -17 6 0 8 -3 5 -6 -3
-3 -15 0 -25 7 -15 9 -25 9 -39 1 -10 -6 -13 -12 -6 -12 6 0 12 -9 12 -20 0
-14 7 -20 23 -20 12 -1 38 -14 57 -30 38 -33 36 -37 -6 -15 -16 8 -40 15 -53
15 -24 0 -24 0 -5 -16 18 -15 17 -15 -11 -8 -16 4 -37 6 -47 6 -9 0 -24 8 -34
19 -21 24 -30 24 -36 1 -4 -14 7 -21 56 -35 83 -25 106 -35 106 -45 0 -5 -12
-8 -27 -6 -15 1 -38 -6 -53 -16 -23 -16 -28 -17 -53 -3 -16 8 -26 20 -24 27 4
11 -3 11 -32 4 -27 -7 -51 -6 -82 3 -24 7 -53 13 -64 14 -11 1 -42 5 -69 9
-30 5 -46 4 -42 -2 5 -9 70 -25 111 -27 29 -2 78 -16 92 -27 7 -5 16 -7 21 -4
6 3 30 -1 56 -8 25 -8 46 -11 46 -8 0 4 5 -1 11 -11 13 -21 3 -57 -16 -57 -18
0 -68 19 -75 29 -8 12 -122 28 -150 21 -23 -6 -23 -7 10 -14 96 -19 130 -29
135 -36 3 -4 14 -6 24 -3 10 3 22 0 25 -6 4 -6 16 -11 27 -11 10 0 19 -7 19
-15 0 -10 -10 -15 -31 -15 -17 0 -37 -7 -45 -15 -17 -16 -84 -20 -100 -6 -11
10 -84 24 -84 16 0 -6 49 -28 65 -30 6 0 16 -4 23 -9 11 -6 11 -11 0 -23 -12
-14 -9 -15 27 -10 28 5 34 4 20 -3 l-20 -9 20 0 c12 -1 16 -4 9 -9 -47 -32 3
-136 90 -187 14 -8 16 -15 7 -37 -12 -31 -9 -33 19 -18 29 15 34 -6 11 -39
-12 -16 -21 -33 -21 -37 0 -4 6 0 13 9 6 9 27 21 45 26 31 9 32 9 26 -17 -9
-36 -14 -43 -25 -37 -5 4 -9 -1 -9 -9 0 -8 -7 -22 -16 -30 -14 -15 -13 -16 16
-16 18 0 29 4 25 10 -3 6 -2 10 3 10 5 0 14 11 20 24 8 18 16 23 32 19 13 -3
19 -11 16 -19 -3 -8 3 -30 14 -50 11 -19 18 -39 15 -45 -3 -5 1 -6 9 -3 26 10
18 -12 -9 -26 -14 -8 -34 -30 -43 -49 -15 -33 -17 -34 -20 -13 -2 13 1 29 7
36 9 10 8 15 -4 20 -11 4 -14 2 -9 -7 4 -6 -4 -1 -19 12 -14 12 -30 20 -36 16
-6 -3 -11 2 -12 12 0 10 -3 13 -6 6 -2 -7 -16 -13 -30 -13 -23 0 -24 2 -12 18
13 16 13 16 -7 0 -11 -10 -26 -18 -32 -18 -35 0 -20 -81 29 -159 21 -33 26
-47 17 -52 -7 -5 -9 -11 -5 -15 8 -8 137 121 137 137 0 5 5 9 10 9 6 0 21 9
33 21 l22 20 3 -22 c3 -14 -5 -29 -20 -41 -23 -19 -23 -19 -1 -8 20 9 23 8 20
-9 -2 -11 -7 -24 -12 -28 -4 -5 -5 -2 0 6 6 10 4 12 -4 7 -12 -8 -7 -21 7 -21
4 0 13 -4 20 -9 10 -6 6 -13 -15 -29 -25 -20 -95 -83 -176 -159 -16 -16 -31
-28 -34 -28 -4 0 -15 -8 -25 -17 -32 -29 -47 -24 -59 19 -6 22 -15 52 -20 66
-9 23 -11 24 -28 8 -16 -15 -17 -23 -8 -57 11 -44 -4 -95 -26 -86 -6 2 -30
-13 -52 -34 l-40 -39 52 25 c28 13 58 34 67 47 16 23 35 17 39 -14 2 -7 13
-32 26 -53 21 -36 24 -38 36 -22 7 9 15 17 19 17 4 0 15 8 25 17 16 15 17 20
5 31 -12 11 -14 10 -14 -4 0 -14 -4 -13 -20 6 l-20 23 43 47 c23 25 43 45 45
44 2 -1 20 14 40 33 20 19 52 40 70 48 18 8 35 21 38 29 11 28 20 8 18 -38 -1
-26 -8 -54 -15 -63 -9 -10 -9 -14 -2 -10 17 11 8 -29 -11 -49 -19 -19 -20 -31
-4 -36 8 -3 5 -12 -10 -28 -17 -18 -22 -20 -22 -8 0 9 -7 18 -15 22 -8 3 -15
13 -15 21 0 10 5 13 12 9 7 -4 8 -3 4 5 -4 6 0 18 8 27 9 8 16 21 15 27 0 7
-7 2 -16 -10 -8 -13 -21 -23 -27 -23 -18 -1 -69 -47 -72 -65 -2 -15 -1 -15 17
1 10 9 19 13 19 8 0 -5 5 -2 10 6 9 13 11 13 20 0 7 -11 5 -19 -10 -31 -10 -9
-16 -19 -13 -23 4 -3 -1 -6 -10 -6 -10 0 -17 -7 -17 -15 0 -8 -6 -12 -14 -9
-7 3 -16 -2 -19 -10 -8 -20 34 -12 50 11 11 14 16 15 38 3 18 -10 25 -21 25
-44 0 -24 -3 -27 -10 -16 -9 14 -11 10 -10 -15 0 -3 -12 -16 -27 -29 l-28 -24
-14 22 c-8 11 -16 23 -17 24 -1 2 -14 -4 -28 -15 -28 -20 -34 -40 -12 -40 8 0
12 6 8 15 -4 11 -1 14 11 9 11 -4 14 -2 10 9 -8 22 3 16 21 -11 15 -23 15 -27
0 -50 -10 -15 -13 -32 -9 -46 5 -16 4 -19 -6 -14 -9 6 -11 3 -6 -9 5 -12 -5
-29 -31 -55 -56 -58 -131 -156 -135 -177 -1 -11 -6 -25 -10 -31 -5 -8 12 -4
40 8 37 16 52 18 66 9 14 -8 42 -4 126 19 59 17 122 33 141 36 18 3 40 9 49
14 9 4 36 9 61 10 25 2 53 7 62 12 12 6 18 6 18 0 0 -6 -8 -14 -17 -19 -19
-10 -251 -78 -293 -85 -58 -11 -225 -61 -228 -69 -5 -12 -3 -23 6 -23 4 0 12
-3 17 -6 13 -8 68 -23 78 -21 4 1 7 -2 7 -8 0 -11 24 -8 145 18 l90 19 7 -26
c6 -22 7 -20 5 9 -2 34 -1 36 25 32 17 -3 34 2 44 12 15 15 18 15 40 1 22 -14
24 -14 25 2 1 10 1 25 0 33 -2 13 -1 13 8 0 5 -8 7 -18 4 -24 -3 -5 -1 -6 6
-2 7 4 20 -2 31 -16 13 -15 19 -18 20 -9 0 8 -10 26 -22 40 l-23 25 34 -24
c30 -20 34 -21 28 -6 -5 14 -3 17 8 12 8 -3 15 -1 15 5 0 5 10 0 22 -11 13
-11 34 -23 48 -27 14 -3 31 -10 38 -16 8 -6 12 -5 13 4 0 8 4 4 9 -8 5 -13 14
-23 19 -23 6 0 7 -7 4 -17 -4 -11 -3 -14 5 -9 7 4 12 1 12 -7 0 -8 9 -22 20
-32 12 -10 18 -25 16 -32 -3 -7 -1 -15 4 -18 6 -4 10 1 10 9 0 22 12 20 38 -4
25 -23 28 -36 10 -43 -7 -2 -9 -8 -5 -13 4 -5 11 -4 15 2 4 6 17 16 30 23 13
7 20 17 15 24 -5 9 -3 9 8 0 8 -7 34 -11 56 -10 23 1 39 -1 37 -5 -3 -5 2 -8
10 -8 15 0 20 -11 17 -37 -1 -8 5 -10 14 -7 8 3 15 10 15 15 0 4 10 17 21 28
15 14 30 18 53 15 36 -6 55 -7 76 -2 10 2 15 -5 15 -22 0 -28 27 -60 50 -60
20 0 44 49 52 106 3 25 12 48 19 51 16 6 46 95 39 115 -3 8 1 21 10 28 14 12
20 12 38 0 25 -16 167 -21 167 -6 0 6 5 5 12 -2 7 -7 22 -12 35 -12 13 0 23
-4 23 -8 0 -5 10 -13 23 -19 18 -8 35 -5 83 18 53 24 65 34 85 76 13 26 23 51
21 56 -1 4 3 7 9 7 5 0 7 5 4 10 -3 6 -1 10 4 10 6 0 11 6 11 13 0 8 11 19 25
25 14 6 25 16 25 22 0 5 5 10 10 10 6 0 10 -11 10 -24 0 -31 20 -87 29 -81 4
2 7 -5 7 -17 -1 -12 14 -33 37 -51 37 -31 38 -31 79 -17 78 27 141 162 137
291 -1 36 1 71 5 78 5 7 5 32 1 57 -6 45 0 52 40 44 6 -1 4 4 -2 11 -18 18
-16 30 2 23 8 -4 15 -1 15 5 0 8 5 9 19 1 12 -6 22 -26 26 -50 9 -51 31 -68
39 -28 2 7 7 22 11 32 5 12 5 21 -1 23 -5 2 -7 28 -6 59 3 35 0 54 -6 50 -5
-3 -12 3 -15 15 -4 17 -2 19 16 13 19 -6 20 -5 8 10 -7 9 -10 16 -5 16 5 0 2
5 -6 10 -11 7 -12 10 -2 10 9 0 11 7 7 20 -5 16 -3 19 11 13 14 -5 16 -2 11
17 -4 15 1 33 14 52 11 15 19 36 18 45 -2 10 3 28 9 41 7 12 14 36 15 52 2 23
6 28 19 24 20 -6 33 12 14 19 -9 4 -12 14 -9 27 3 11 8 18 11 16 10 -11 31 30
26 51 -3 11 0 31 6 44 7 12 14 47 16 78 l3 56 -19 -40 c-11 -22 -19 -47 -20
-55 0 -9 -4 -20 -8 -25 -5 -6 -23 -46 -41 -90 -66 -161 -213 -346 -354 -443
-73 -50 -147 -88 -242 -122 -27 -10 -59 -21 -69 -26 -37 -15 -6 14 39 37 24
12 41 27 38 32 -3 6 -2 7 4 4 16 -10 124 46 204 106 72 52 110 90 194 190 82
98 197 330 178 361 -3 5 -1 6 5 2 7 -4 12 -3 12 3 0 5 5 22 12 38 6 15 10 36
9 46 -1 10 3 33 9 51 6 18 13 42 15 52 2 10 9 39 15 63 18 76 3 67 -64 -35
-47 -70 -162 -212 -198 -242 -16 -14 -27 -31 -24 -39 3 -8 1 -11 -4 -8 -13 8
-52 -14 -45 -26 4 -5 3 -9 -2 -8 -22 4 -25 -2 -7 -17 18 -14 18 -15 -4 -4 -19
9 -26 9 -35 -2 -23 -27 -199 -139 -262 -167 -11 -5 -45 -20 -75 -34 -93 -43
-199 -83 -325 -122 -184 -57 -196 -61 -190 -67 3 -3 -6 -3 -20 -1 -14 3 -25 1
-25 -4 0 -5 -8 -9 -18 -10 -39 -3 -258 -66 -317 -92 -28 -12 -111 -31 -135
-31 -12 0 -61 -13 -110 -30 -49 -16 -106 -32 -125 -36 -34 -6 -35 -5 -26 17
10 28 27 218 41 469 13 231 19 315 31 434 12 129 12 136 -6 136 -12 0 -10 5 6
21 16 16 18 23 8 35 -6 8 -7 14 -2 14 8 0 44 376 58 610 3 52 8 115 11 140 6
44 5 45 -37 73 -24 15 -50 25 -57 22 -8 -3 -10 0 -6 7 5 8 2 9 -9 5 -10 -4
-16 -2 -14 6 1 7 -6 11 -16 11 -10 -1 -16 0 -13 3 7 8 -67 61 -90 65 -11 2
-22 8 -26 13 -5 6 -8 6 -8 -2 0 -7 8 -17 18 -22 13 -8 13 -10 3 -11 -33 0 11
-25 52 -29 5 -1 6 -5 2 -10 -3 -5 -1 -12 5 -16 5 -3 10 0 11 7 0 7 4 3 9 -9 5
-13 16 -23 24 -23 8 0 27 -11 42 -25 19 -18 31 -22 43 -15 24 12 36 0 36 -37
-1 -18 4 -33 10 -33 6 0 7 -3 0 -8 -5 -4 -11 -13 -13 -21 -8 -40 -34 -253 -41
-352 -5 -63 -16 -193 -25 -289 -8 -96 -20 -235 -26 -309 -5 -74 -12 -137 -15
-140 -3 -2 -10 0 -16 6 -7 7 -5 55 5 154 9 79 21 203 26 274 16 202 40 480 51
589 6 54 9 99 7 100 -2 1 -51 34 -110 73 -59 38 -104 74 -100 78 4 5 -1 5 -11
2 -10 -4 -23 -2 -30 3 -49 41 -62 50 -75 50 -9 0 -23 7 -33 15 -15 14 -18 14
-32 1z m267 -51 c11 -8 15 -15 10 -15 -6 0 -19 7 -30 15 -10 8 -14 14 -9 14 6
0 19 -6 29 -14z m-302 -104 c-3 -16 23 -42 34 -33 5 4 3 -1 -5 -10 -12 -17
-33 -15 -59 5 -9 7 -9 13 -1 23 6 7 8 18 4 25 -5 7 -1 9 11 7 11 -2 18 -10 16
-17z m48 -241 c0 -5 -2 -10 -4 -10 -3 0 -8 5 -11 10 -3 6 -1 10 4 10 6 0 11
-4 11 -10z m53 -15 c-3 -9 -8 -13 -11 -11 -3 3 -11 -2 -18 -12 -12 -16 -12
-16 -11 3 1 11 11 23 22 27 11 3 21 6 22 7 1 1 0 -6 -4 -14z m-27 -132 c-10
-10 -19 5 -10 18 6 11 8 11 12 0 2 -7 1 -15 -2 -18z m24 -17 c0 -3 -4 -8 -10
-11 -5 -3 -10 -1 -10 4 0 6 5 11 10 11 6 0 10 -2 10 -4z m11 -60 c-13 -15 1
-32 17 -22 5 3 9 -1 9 -10 0 -14 -39 -16 -53 -2 -11 11 7 48 23 48 12 0 13 -3
4 -14z m-16 -306 c3 -5 2 -10 -4 -10 -5 0 -13 5 -16 10 -3 6 -2 10 4 10 5 0
13 -4 16 -10z m-211 -48 c2 -4 -6 -8 -19 -8 -13 0 -21 4 -19 8 3 4 11 8 19 8
8 0 16 -4 19 -8z m96 -32 c0 -5 -7 -10 -16 -10 -8 0 -12 5 -9 10 3 6 10 10 16
10 5 0 9 -4 9 -10z m87 -36 c-3 -3 -12 -4 -19 -1 -8 3 -5 6 6 6 11 1 17 -2 13
-5z m2220 -176 c-3 -8 -6 -5 -6 6 -1 11 2 17 5 13 3 -3 4 -12 1 -19z m-2183
-76 c3 -5 -1 -9 -9 -9 -8 0 -12 4 -9 9 3 4 7 8 9 8 2 0 6 -4 9 -8z m2076 -66
c-7 -7 -13 -7 -20 0 -6 6 -3 10 10 10 13 0 16 -4 10 -10z m-1835 -88 c-4 -51
-9 -115 -11 -143 -19 -309 -51 -454 -124 -560 -16 -24 -30 -47 -30 -51 0 -21
-208 -244 -228 -244 -4 0 -18 -9 -32 -20 -29 -23 -62 -27 -54 -6 3 7 26 28 52
47 26 18 66 51 90 74 24 22 50 39 58 37 8 -2 12 3 9 11 -3 7 17 41 44 74 66
83 124 210 145 318 10 52 46 366 52 455 6 89 9 100 26 100 8 0 9 -28 3 -92z
m1585 -108 c0 -5 -5 -10 -11 -10 -5 0 -7 5 -4 10 3 6 8 10 11 10 2 0 4 -4 4
-10z m-195 -110 c-3 -5 -12 -10 -18 -10 -7 0 -6 4 3 10 19 12 23 12 15 0z m25
-14 c0 -2 -7 -7 -16 -10 -8 -3 -12 -2 -9 4 6 10 25 14 25 6z m-1762 -490 c-7
-8 -15 -12 -17 -11 -5 6 10 25 20 25 5 0 4 -6 -3 -14z m-30 -67 c-3 -8 -7 -3
-11 10 -4 17 -3 21 5 13 5 -5 8 -16 6 -23z m1939 -265 c-3 -3 -12 -4 -19 -1
-8 3 -5 6 6 6 11 1 17 -2 13 -5z m-1323 -97 c2 -15 3 -27 0 -27 -8 0 -22 44
-17 53 7 12 11 5 17 -26z m11 -56 c-3 -2 3 -13 12 -24 10 -11 13 -17 6 -13 -7
3 -22 20 -34 37 -21 30 -21 31 -1 18 12 -7 19 -15 17 -18z m69 -9 c3 -5 -1 -9
-9 -9 -8 0 -12 4 -9 9 3 4 7 8 9 8 2 0 6 -4 9 -8z m10 -78 c3 -8 2 -12 -4 -9
-6 3 -10 10 -10 16 0 14 7 11 14 -7z"/>
<path d="M835 3160 c-3 -5 3 -10 15 -10 12 0 18 5 15 10 -3 6 -10 10 -15 10
-5 0 -12 -4 -15 -10z"/>
<path d="M1016 3085 c-11 -30 -6 -40 11 -22 12 12 14 20 6 28 -7 7 -12 6 -17
-6z"/>
<path d="M870 3076 c0 -9 7 -16 16 -16 9 0 14 5 12 12 -6 18 -28 21 -28 4z"/>
<path d="M926 3075 c4 -8 10 -15 15 -15 5 0 9 7 9 15 0 8 -7 15 -15 15 -9 0
-12 -6 -9 -15z"/>
<path d="M3070 3060 c0 -5 5 -10 10 -10 6 0 10 5 10 10 0 6 -4 10 -10 10 -5 0
-10 -4 -10 -10z"/>
<path d="M3055 3010 c-3 -5 -1 -10 4 -10 6 0 11 5 11 10 0 6 -2 10 -4 10 -3 0
-8 -4 -11 -10z"/>
<path d="M1060 2981 c-7 -15 -6 -20 6 -25 19 -7 34 1 34 19 0 22 -29 26 -40 6z"/>
<path d="M990 2960 c0 -5 4 -10 9 -10 6 0 13 5 16 10 3 6 -1 10 -9 10 -9 0
-16 -4 -16 -10z"/>
<path d="M1050 2935 c0 -3 9 -15 20 -27 11 -12 20 -16 20 -9 0 7 5 9 11 5 8
-4 8 0 0 15 -10 18 -51 31 -51 16z"/>
<path d="M830 2925 c0 -2 10 -10 23 -16 20 -11 21 -11 8 4 -13 16 -31 23 -31
12z"/>
<path d="M1120 2911 c0 -25 6 -27 13 -6 4 8 2 17 -3 20 -6 4 -10 -3 -10 -14z"/>
<path d="M1015 2840 c-4 -7 2 -14 14 -17 12 -3 21 -9 21 -14 0 -5 7 -9 15 -9
21 0 19 26 -2 34 -10 3 -23 8 -30 12 -6 3 -14 0 -18 -6z"/>
<path d="M3385 2830 c3 -5 8 -10 11 -10 2 0 4 5 4 10 0 6 -5 10 -11 10 -5 0
-7 -4 -4 -10z"/>
<path d="M1000 2755 c0 -18 19 -40 26 -32 4 4 0 15 -9 24 -9 10 -17 13 -17 8z"/>
<path d="M1083 2743 c-18 -7 -16 -20 3 -27 21 -8 34 1 27 19 -5 16 -10 17 -30
8z"/>
<path d="M3193 2699 c-26 -17 -31 -25 -28 -53 2 -30 -2 -36 -35 -55 -41 -23
-54 -26 -45 -11 3 6 1 10 -6 10 -7 0 -9 10 -7 25 3 14 3 25 1 25 -16 0 -189
-176 -220 -224 -48 -74 -126 -146 -168 -156 -22 -5 -41 -7 -43 -5 -2 2 21 27
52 56 31 29 54 54 53 56 -2 2 12 21 31 43 42 46 102 133 96 139 -2 2 -35 -22
-73 -53 -39 -31 -73 -56 -76 -56 -3 0 -33 -18 -67 -41 -33 -23 -108 -64 -166
-92 -86 -40 -103 -52 -87 -58 11 -4 15 -8 8 -8 -6 -1 -19 -4 -29 -8 -12 -4
-15 -3 -10 5 10 17 -10 15 -50 -4 -19 -9 -31 -20 -28 -25 3 -5 -1 -7 -8 -4
-15 5 -171 -69 -162 -77 3 -3 -1 -6 -8 -5 -41 1 -46 -4 -52 -50 -3 -27 -6 -61
-6 -77 1 -39 -28 -465 -36 -538 -3 -32 -4 -58 -2 -58 2 0 28 9 58 20 30 12 80
27 110 35 64 16 406 119 465 139 155 55 245 90 275 108 19 12 62 36 94 55 125
71 239 171 344 300 29 35 39 54 31 59 -7 4 -10 3 -7 -2 3 -5 -1 -15 -9 -23
-13 -12 -14 -11 -8 9 5 16 4 20 -5 15 -6 -4 -10 -15 -8 -24 5 -20 -34 -58 -53
-53 -11 3 -11 2 -1 -6 10 -7 9 -12 -4 -23 -16 -12 -17 -12 -10 1 4 8 -14 -7
-39 -35 -25 -27 -45 -44 -43 -36 2 7 -3 16 -11 19 -10 3 -12 0 -8 -11 4 -12 2
-14 -10 -10 -12 5 -14 1 -8 -18 4 -16 3 -20 -3 -10 -8 11 -13 10 -30 -5 -12
-10 -18 -22 -15 -28 3 -6 0 -5 -8 2 -16 15 -39 16 -39 1 0 -6 7 -9 14 -6 10 4
13 1 9 -9 -3 -8 -12 -13 -19 -10 -23 9 -45 -5 -39 -24 6 -20 -26 -37 -47 -24
-8 5 -9 2 -5 -9 6 -15 -11 -26 -52 -33 -8 -2 -17 -8 -21 -14 -7 -12 -40 -3
-40 11 0 5 -7 9 -15 9 -17 0 -50 17 -78 39 -9 8 -20 11 -24 8 -3 -4 -13 -1
-21 5 -11 10 -17 9 -27 -5 -15 -21 -22 -22 -22 -3 0 8 3 14 6 13 3 -1 6 2 6 8
0 5 -3 9 -7 8 -13 -5 -9 9 8 28 17 19 11 39 -12 39 -17 0 -19 26 -1 33 9 4 9
8 1 14 -13 9 -2 47 16 58 8 5 8 11 -1 22 -11 12 -10 14 7 11 12 -2 19 3 19 12
0 8 -6 16 -12 16 -7 1 -18 2 -25 3 -16 2 -5 11 19 16 14 2 24 -4 32 -21 12
-26 41 -33 41 -9 0 8 -4 15 -9 15 -5 0 -6 12 -2 28 5 15 14 26 21 24 10 -2 10
1 -1 14 -8 10 -9 15 -3 11 7 -4 17 0 24 8 7 8 17 12 23 8 6 -4 7 -1 2 6 -5 9
-10 10 -18 2 -17 -17 -31 -13 -17 4 11 13 10 15 -6 10 -10 -4 -7 1 9 10 15 9
27 24 27 35 0 11 5 20 11 20 13 0 48 41 49 57 0 17 30 44 41 38 19 -12 36 20
31 57 -4 31 -1 38 12 38 9 0 16 4 16 8 0 4 8 8 18 8 16 0 17 -4 8 -28 -12 -32
-23 -36 -29 -10 -4 16 -5 16 -12 -2 -8 -19 3 -47 22 -53 9 -3 21 20 27 52 7
37 30 93 37 89 5 -3 6 2 3 10 -4 10 -1 16 7 16 8 0 30 14 49 30 19 16 40 34
47 40 7 5 18 10 25 10 7 0 30 18 52 40 21 22 45 40 52 40 8 0 14 5 14 10 0 15
-9 12 -37 -10 -32 -25 -42 -25 -51 0 -7 19 -7 19 -39 -1z m42 -29 c-3 -5 -11
-10 -16 -10 -6 0 -7 5 -4 10 3 6 11 10 16 10 6 0 7 -4 4 -10z m-41 -25 c-4 -8
-10 -15 -15 -15 -5 0 -9 7 -9 15 0 8 7 15 15 15 9 0 12 -6 9 -15z m-389 -175
c4 -6 3 -10 -2 -9 -27 5 -35 -1 -23 -17 8 -9 9 -14 2 -12 -6 2 -18 -6 -26 -17
l-16 -20 7 20 c6 18 5 19 -13 5 -17 -14 -18 -14 -6 2 8 10 19 16 25 15 6 -1
11 4 12 11 0 7 7 17 15 22 19 12 18 12 25 0z m-87 -72 c23 -23 14 -27 -42 -19
-9 1 12 31 23 31 4 0 12 -5 19 -12z m-28 -32 c0 -3 -4 -8 -10 -11 -5 -3 -10
-1 -10 4 0 6 5 11 10 11 6 0 10 -2 10 -4z m-16 -34 c3 -5 -1 -9 -9 -9 -8 0
-12 4 -9 9 3 4 7 8 9 8 2 0 6 -4 9 -8z m-64 -72 c-8 -5 -22 -9 -30 -9 -10 0
-8 3 5 9 27 12 43 12 25 0z m-233 -46 c-3 -3 -12 -4 -19 -1 -8 3 -5 6 6 6 11
1 17 -2 13 -5z m11 -38 c-7 -8 -15 -12 -17 -11 -5 6 10 25 20 25 5 0 4 -6 -3
-14z m293 -313 c-12 -20 -14 -14 -5 12 4 9 9 14 11 11 3 -2 0 -13 -6 -23z
m-201 -79 c0 -2 -7 -4 -15 -4 -8 0 -15 4 -15 10 0 5 7 7 15 4 8 -4 15 -8 15
-10z m236 -11 c4 4 13 2 20 -4 20 -17 0 -45 -35 -52 -24 -5 -36 -1 -57 20 -14
14 -22 29 -17 33 12 13 67 16 75 5 4 -5 10 -6 14 -2z m-111 -13 c3 -5 1 -10
-4 -10 -6 0 -11 5 -11 10 0 6 2 10 4 10 3 0 8 -4 11 -10z m35 -45 c7 -9 8 -15
2 -15 -5 0 -12 7 -16 15 -3 8 -4 15 -2 15 2 0 9 -7 16 -15z"/>
<path d="M970 2678 c0 -7 10 -14 21 -15 12 -1 20 -1 18 0 -2 2 -12 9 -21 16
-15 11 -18 11 -18 -1z"/>
<path d="M1830 2670 c0 -5 5 -10 10 -10 6 0 10 5 10 10 0 6 -4 10 -10 10 -5 0
-10 -4 -10 -10z"/>
<path d="M795 2650 c4 -6 11 -8 16 -5 14 9 11 15 -7 15 -8 0 -12 -5 -9 -10z"/>
<path d="M976 2643 c-11 -11 -6 -23 9 -23 8 0 15 4 15 9 0 13 -16 22 -24 14z"/>
<path d="M3297 2643 c-11 -3 -16 -11 -13 -19 3 -8 2 -13 -2 -10 -5 3 -16 -3
-24 -13 -15 -17 -14 -20 6 -30 15 -8 29 -9 46 -2 18 7 20 10 8 10 -20 1 -24
16 -6 27 6 4 8 3 5 -3 -4 -6 2 -13 12 -16 23 -6 34 33 15 51 -14 12 -17 13
-47 5z"/>
<path d="M1030 2612 c0 -7 20 -20 64 -40 5 -3 6 1 2 7 -10 15 -66 44 -66 33z"/>
<path d="M1120 2600 c0 -5 7 -10 16 -10 8 0 12 5 9 10 -3 6 -10 10 -16 10 -5
0 -9 -4 -9 -10z"/>
<path d="M2899 2563 c-13 -16 -12 -17 4 -4 16 13 21 21 13 21 -2 0 -10 -8 -17
-17z"/>
<path d="M3310 2550 c0 -6 7 -10 15 -10 8 0 15 2 15 4 0 2 -7 6 -15 10 -8 3
-15 1 -15 -4z"/>
<path d="M850 2540 c0 -5 5 -10 10 -10 6 0 10 5 10 10 0 6 -4 10 -10 10 -5 0
-10 -4 -10 -10z"/>
<path d="M910 2540 c0 -5 7 -10 15 -10 8 0 15 5 15 10 0 6 -7 10 -15 10 -8 0
-15 -4 -15 -10z"/>
<path d="M965 2530 c3 -5 8 -10 11 -10 2 0 4 5 4 10 0 6 -5 10 -11 10 -5 0 -7
-4 -4 -10z"/>
<path d="M1086 2519 c3 -5 9 -7 13 -4 5 2 17 -2 27 -10 26 -20 42 -19 22 1
-17 18 -72 29 -62 13z"/>
<path d="M916 2480 c10 -10 115 -31 122 -25 10 9 -57 31 -71 23 -9 -5 -18 -4
-22 2 -3 5 -14 10 -23 10 -11 0 -13 -3 -6 -10z"/>
<path d="M665 2386 c11 -8 24 -12 29 -8 5 3 1 9 -10 13 -31 12 -39 10 -19 -5z"/>
<path d="M756 2337 c3 -10 9 -15 12 -12 3 3 0 11 -7 18 -10 9 -11 8 -5 -6z"/>
<path d="M2955 2330 c-3 -5 -1 -10 4 -10 6 0 11 5 11 10 0 6 -2 10 -4 10 -3 0
-8 -4 -11 -10z"/>
<path d="M788 2313 c6 -2 18 -2 25 0 6 3 1 5 -13 5 -14 0 -19 -2 -12 -5z"/>
<path d="M1095 2310 c3 -5 8 -10 11 -10 2 0 4 5 4 10 0 6 -5 10 -11 10 -5 0
-7 -4 -4 -10z"/>
<path d="M808 2213 c7 -3 16 -2 19 1 4 3 -2 6 -13 5 -11 0 -14 -3 -6 -6z"/>
<path d="M535 2140 c11 -5 27 -9 35 -9 9 0 8 4 -5 9 -11 5 -27 9 -35 9 -9 0
-8 -4 5 -9z"/>
<path d="M600 2140 c8 -5 22 -10 30 -10 13 0 13 1 0 10 -8 5 -22 10 -30 10
-13 0 -13 -1 0 -10z"/>
<path d="M735 2120 c3 -5 14 -10 23 -10 15 0 15 2 2 10 -20 13 -33 13 -25 0z"/>
<path d="M785 2110 c3 -5 14 -10 23 -10 15 0 15 2 2 10 -20 13 -33 13 -25 0z"/>
<path d="M2790 2110 c0 -5 5 -10 10 -10 6 0 10 5 10 10 0 6 -4 10 -10 10 -5 0
-10 -4 -10 -10z"/>
<path d="M895 2050 c3 -5 8 -10 11 -10 2 0 4 5 4 10 0 6 -5 10 -11 10 -5 0 -7
-4 -4 -10z"/>
<path d="M2720 1969 c0 -5 5 -7 10 -4 6 3 10 8 10 11 0 2 -4 4 -10 4 -5 0 -10
-5 -10 -11z"/>
<path d="M2741 1924 c0 -11 3 -14 6 -6 3 7 2 16 -1 19 -3 4 -6 -2 -5 -13z"/>
<path d="M3555 1930 c3 -5 8 -10 11 -10 2 0 4 5 4 10 0 6 -5 10 -11 10 -5 0
-7 -4 -4 -10z"/>
<path d="M3550 1895 c0 -8 5 -15 10 -15 6 0 10 7 10 15 0 8 -4 15 -10 15 -5 0
-10 -7 -10 -15z"/>
<path d="M3010 1820 c0 -5 5 -10 10 -10 6 0 10 5 10 10 0 6 -4 10 -10 10 -5 0
-10 -4 -10 -10z"/>
<path d="M904 1795 c-14 -14 -39 -31 -55 -38 -29 -12 -29 -12 23 -12 63 0 82
9 69 33 -4 9 -6 23 -4 30 7 19 -6 14 -33 -13z"/>
<path d="M980 1736 c-9 -11 -9 -19 0 -33 7 -11 10 -12 7 -3 -2 8 0 23 5 33 11
21 5 22 -12 3z"/>
<path d="M1226 1698 c-9 -12 -14 -23 -12 -25 7 -7 35 9 40 22 9 24 -12 26 -28
3z"/>
<path d="M748 1673 c7 -3 16 -2 19 1 4 3 -2 6 -13 5 -11 0 -14 -3 -6 -6z"/>
<path d="M934 1641 c-32 -31 -73 -46 -149 -55 -43 -5 -53 -3 -68 14 -25 29
-85 28 -96 -2 -12 -31 8 -38 89 -31 53 4 68 2 79 -11 11 -13 11 -19 0 -33 -11
-13 -5 -12 24 5 45 26 54 28 37 7 -9 -10 2 -8 31 7 55 29 64 41 36 49 -21 6
-21 6 5 17 25 10 55 48 46 58 -3 2 -18 -9 -34 -25z"/>
<path d="M982 1638 c-19 -19 -14 -29 8 -16 20 13 27 28 12 28 -4 0 -13 -5 -20
-12z"/>
<path d="M3520 1630 c0 -5 5 -10 10 -10 6 0 10 5 10 10 0 6 -4 10 -10 10 -5 0
-10 -4 -10 -10z"/>
<path d="M1223 1540 c-13 -5 -23 -11 -23 -14 0 -7 40 6 46 15 6 10 6 10 -23
-1z"/>
<path d="M1226 1484 c-9 -23 -2 -28 13 -10 7 8 8 17 3 20 -6 3 -13 -1 -16 -10z"/>
<path d="M700 1450 c-9 -6 -10 -10 -3 -10 6 0 15 5 18 10 8 12 4 12 -15 0z"/>
<path d="M715 1356 c-15 -36 -27 -69 -27 -73 0 -4 -4 -16 -10 -27 -10 -18 -9
-18 15 0 14 11 24 21 22 22 -2 2 6 13 17 24 16 16 17 22 6 36 -9 11 -10 14 0
8 6 -4 12 -4 13 1 1 9 5 32 10 52 2 7 -1 15 -7 18 -6 2 -24 -25 -39 -61z"/>
<path d="M820 1275 c-17 -10 -20 -14 -9 -15 9 0 22 7 29 15 15 18 12 18 -20 0z"/>
<path d="M749 1258 c0 -2 -2 -11 -4 -21 -2 -10 -11 -27 -20 -37 -10 -10 -15
-25 -12 -32 2 -7 -3 -22 -12 -32 -15 -18 -15 -18 4 -8 30 15 58 49 52 64 -2 7
0 21 5 31 6 11 5 17 -2 17 -6 0 -8 5 -5 10 3 6 4 10 1 10 -3 0 -6 -1 -7 -2z
m1 -72 c0 -2 -8 -10 -17 -17 -16 -13 -17 -12 -4 4 13 16 21 21 21 13z"/>
<path d="M740 1113 c-24 -25 -24 -26 -2 -14 12 6 22 16 22 22 0 6 5 7 10 4 6
-3 10 -1 10 4 0 18 -13 12 -40 -16z"/>
<path d="M1175 1130 c3 -5 10 -10 16 -10 5 0 9 5 9 10 0 6 -7 10 -16 10 -8 0
-12 -4 -9 -10z"/>
<path d="M1084 1100 c0 -13 4 -16 10 -10 7 7 7 13 0 20 -6 6 -10 3 -10 -10z"/>
<path d="M1155 1110 c-3 -5 -1 -10 4 -10 6 0 11 5 11 10 0 6 -2 10 -4 10 -3 0
-8 -4 -11 -10z"/>
<path d="M1130 1079 c0 -5 5 -7 10 -4 6 3 10 8 10 11 0 2 -4 4 -10 4 -5 0 -10
-5 -10 -11z"/>
<path d="M1153 1065 c-9 -24 1 -27 15 -5 8 13 8 20 2 20 -6 0 -13 -7 -17 -15z"/>
<path d="M1100 999 c0 -5 5 -7 10 -4 6 3 10 8 10 11 0 2 -4 4 -10 4 -5 0 -10
-5 -10 -11z"/>
<path d="M897 983 c-10 -9 -9 -23 1 -23 5 0 9 7 9 15 0 17 -1 18 -10 8z"/>
<path d="M695 789 c-11 -16 -1 -19 13 -3 7 8 8 14 3 14 -5 0 -13 -5 -16 -11z"/>
<path d="M1635 550 c3 -5 8 -10 11 -10 2 0 4 5 4 10 0 6 -5 10 -11 10 -5 0 -7
-4 -4 -10z"/>
<path d="M1616 522 c-2 -4 4 -8 14 -8 10 0 16 4 14 8 -3 4 -9 8 -14 8 -5 0
-11 -4 -14 -8z"/>
<path d="M1725 430 c-3 -5 -1 -10 4 -10 6 0 11 5 11 10 0 6 -2 10 -4 10 -3 0
-8 -4 -11 -10z"/>
<path d="M1974 339 c-3 -6 -2 -15 3 -20 5 -5 9 -1 9 11 0 23 -2 24 -12 9z"/>
<path d="M2343 334 c-7 -18 11 -39 26 -30 17 11 13 46 -4 46 -9 0 -18 -7 -22
-16z"/>
<path d="M1953 313 c4 -6 0 -13 -7 -16 -8 -3 -20 -15 -26 -26 -15 -29 9 -18
33 14 12 17 14 26 5 31 -6 4 -8 3 -5 -3z"/>
</g>
</svg>
